<svg width="169" height="40" viewBox="0 0 169 40" fill="none" xmlns="http://www.w3.org/2000/svg">
<rect width="40" height="40" rx="8" fill="white"/>
<path fill-rule="evenodd" clip-rule="evenodd" d="M17.5 7.5C16.1193 7.5 15 8.61929 15 10V15H10C8.61929 15 7.5 16.1193 7.5 17.5V22.5C7.5 23.8807 8.61929 25 10 25H15V30C15 31.3807 16.1193 32.5 17.5 32.5H22.5C23.8807 32.5 25 31.3807 25 30V25H30C31.3807 25 32.5 23.8807 32.5 22.5V17.5C32.5 16.1193 31.3807 15 30 15H25V10C25 8.61929 23.8807 7.5 22.5 7.5H17.5Z" fill="#573FD1"/>
<path d="M49.517 28.5V11.0455H61.2784V14.0881H53.2074V18.2472H60.6733V21.2898H53.2074V25.4574H61.3125V28.5H49.517ZM67.1571 28.7472C66.3219 28.7472 65.5776 28.6023 64.9242 28.3125C64.2708 28.017 63.7537 27.5824 63.373 27.0085C62.998 26.429 62.8105 25.7074 62.8105 24.8438C62.8105 24.1165 62.9441 23.5057 63.2111 23.0114C63.4782 22.517 63.8418 22.1193 64.302 21.8182C64.7622 21.517 65.285 21.2898 65.8702 21.1364C66.4611 20.983 67.0804 20.875 67.7282 20.8125C68.4895 20.733 69.1032 20.6591 69.5691 20.5909C70.035 20.517 70.373 20.4091 70.5833 20.267C70.7935 20.125 70.8986 19.9148 70.8986 19.6364V19.5852C70.8986 19.0455 70.7282 18.6278 70.3872 18.3324C70.052 18.0369 69.5747 17.8892 68.9554 17.8892C68.302 17.8892 67.7821 18.0341 67.3958 18.3239C67.0094 18.608 66.7537 18.9659 66.6287 19.3977L63.2708 19.125C63.4412 18.3295 63.7764 17.642 64.2764 17.0625C64.7764 16.4773 65.4213 16.0284 66.2111 15.7159C67.0066 15.3977 67.927 15.2386 68.9725 15.2386C69.6997 15.2386 70.3958 15.3239 71.0605 15.4943C71.731 15.6648 72.3247 15.929 72.8418 16.2869C73.3645 16.6449 73.7764 17.1051 74.0776 17.6676C74.3787 18.2244 74.5293 18.892 74.5293 19.6705V28.5H71.0861V26.6847H70.9838C70.7736 27.0938 70.4924 27.4545 70.1401 27.767C69.7878 28.0739 69.3645 28.3153 68.8702 28.4915C68.3759 28.6619 67.8049 28.7472 67.1571 28.7472ZM68.1969 26.2415C68.731 26.2415 69.2026 26.1364 69.6117 25.9261C70.0208 25.7102 70.3418 25.4205 70.5747 25.0568C70.8077 24.6932 70.9242 24.2812 70.9242 23.821V22.4318C70.8105 22.5057 70.6543 22.5739 70.4554 22.6364C70.2622 22.6932 70.0435 22.7472 69.7992 22.7983C69.5549 22.8437 69.3105 22.8864 69.0662 22.9261C68.8219 22.9602 68.6003 22.9915 68.4014 23.0199C67.9753 23.0824 67.6032 23.1818 67.285 23.3182C66.9668 23.4545 66.7196 23.6392 66.5435 23.8722C66.3674 24.0994 66.2793 24.3835 66.2793 24.7244C66.2793 25.2188 66.4583 25.5966 66.8162 25.858C67.1799 26.1136 67.6401 26.2415 68.1969 26.2415ZM87.5181 19.142L84.1942 19.3466C84.1374 19.0625 84.0153 18.8068 83.8278 18.5795C83.6403 18.3466 83.3931 18.1619 83.0863 18.0256C82.7851 17.8835 82.4243 17.8125 82.0039 17.8125C81.4414 17.8125 80.967 17.9318 80.5806 18.1705C80.1942 18.4034 80.0011 18.7159 80.0011 19.108C80.0011 19.4205 80.1261 19.6847 80.3761 19.9006C80.6261 20.1165 81.055 20.2898 81.663 20.4205L84.0323 20.8977C85.305 21.1591 86.2539 21.5795 86.8789 22.1591C87.5039 22.7386 87.8164 23.5 87.8164 24.4432C87.8164 25.3011 87.5636 26.054 87.0579 26.7017C86.5579 27.3494 85.8704 27.8551 84.9954 28.2188C84.1261 28.5767 83.1232 28.7557 81.9868 28.7557C80.2539 28.7557 78.8732 28.3949 77.8448 27.6733C76.8221 26.946 76.2226 25.9574 76.0465 24.7074L79.6175 24.5199C79.7255 25.0483 79.9868 25.4517 80.4016 25.7301C80.8164 26.0028 81.3476 26.1392 81.9954 26.1392C82.6317 26.1392 83.1431 26.017 83.5295 25.7727C83.9215 25.5227 84.1204 25.2017 84.1261 24.8097C84.1204 24.4801 83.9812 24.2102 83.7084 24C83.4357 23.7841 83.0153 23.6193 82.4471 23.5057L80.18 23.054C78.9016 22.7983 77.9499 22.3551 77.3249 21.7244C76.7056 21.0937 76.3959 20.2898 76.3959 19.3125C76.3959 18.4716 76.6232 17.7472 77.0778 17.1392C77.538 16.5312 78.1829 16.0625 79.0124 15.733C79.8476 15.4034 80.8249 15.2386 81.9442 15.2386C83.5976 15.2386 84.8988 15.5881 85.8476 16.2869C86.8022 16.9858 87.359 17.9375 87.5181 19.142ZM91.6241 33.4091C91.1639 33.4091 90.732 33.3722 90.3286 33.2983C89.9309 33.2301 89.6014 33.142 89.34 33.0341L90.1582 30.3239C90.5843 30.4545 90.9678 30.5256 91.3088 30.5369C91.6553 30.5483 91.9536 30.4688 92.2036 30.2983C92.4593 30.1278 92.6667 29.8381 92.8258 29.429L93.0389 28.875L88.3428 15.4091H92.161L94.8713 25.0227H95.0076L97.7434 15.4091H101.587L96.4991 29.9148C96.2548 30.6193 95.9224 31.233 95.5019 31.7557C95.0872 32.2841 94.5616 32.6903 93.9252 32.9744C93.2889 33.2642 92.5218 33.4091 91.6241 33.4091ZM118.194 17.1562H114.461C114.393 16.6733 114.254 16.2443 114.043 15.8693C113.833 15.4886 113.563 15.1648 113.234 14.8977C112.904 14.6307 112.523 14.4261 112.092 14.2841C111.665 14.142 111.202 14.071 110.702 14.071C109.799 14.071 109.012 14.2955 108.342 14.7443C107.671 15.1875 107.151 15.8352 106.782 16.6875C106.413 17.5341 106.228 18.5625 106.228 19.7727C106.228 21.017 106.413 22.0625 106.782 22.9091C107.157 23.7557 107.68 24.3949 108.35 24.8267C109.021 25.2585 109.796 25.4744 110.677 25.4744C111.171 25.4744 111.629 25.4091 112.049 25.2784C112.475 25.1477 112.853 24.9574 113.182 24.7074C113.512 24.4517 113.785 24.142 114.001 23.7784C114.222 23.4148 114.376 23 114.461 22.5341L118.194 22.5511C118.097 23.3523 117.856 24.125 117.469 24.8693C117.089 25.608 116.575 26.2699 115.927 26.8551C115.285 27.4347 114.518 27.8949 113.626 28.2358C112.739 28.571 111.736 28.7386 110.617 28.7386C109.06 28.7386 107.668 28.3864 106.441 27.6818C105.219 26.9773 104.254 25.9574 103.543 24.6222C102.839 23.2869 102.486 21.6705 102.486 19.7727C102.486 17.8693 102.844 16.25 103.56 14.9148C104.276 13.5795 105.248 12.5625 106.475 11.8636C107.702 11.1591 109.083 10.8068 110.617 10.8068C111.629 10.8068 112.566 10.9489 113.43 11.233C114.299 11.517 115.069 11.9318 115.739 12.4773C116.41 13.017 116.955 13.679 117.376 14.4631C117.802 15.2472 118.075 16.1449 118.194 17.1562ZM123.785 28.7472C122.95 28.7472 122.205 28.6023 121.552 28.3125C120.899 28.017 120.382 27.5824 120.001 27.0085C119.626 26.429 119.438 25.7074 119.438 24.8438C119.438 24.1165 119.572 23.5057 119.839 23.0114C120.106 22.517 120.47 22.1193 120.93 21.8182C121.39 21.517 121.913 21.2898 122.498 21.1364C123.089 20.983 123.708 20.875 124.356 20.8125C125.117 20.733 125.731 20.6591 126.197 20.5909C126.663 20.517 127.001 20.4091 127.211 20.267C127.421 20.125 127.526 19.9148 127.526 19.6364V19.5852C127.526 19.0455 127.356 18.6278 127.015 18.3324C126.68 18.0369 126.203 17.8892 125.583 17.8892C124.93 17.8892 124.41 18.0341 124.024 18.3239C123.637 18.608 123.382 18.9659 123.257 19.3977L119.899 19.125C120.069 18.3295 120.404 17.642 120.904 17.0625C121.404 16.4773 122.049 16.0284 122.839 15.7159C123.634 15.3977 124.555 15.2386 125.6 15.2386C126.328 15.2386 127.024 15.3239 127.688 15.4943C128.359 15.6648 128.953 15.929 129.47 16.2869C129.992 16.6449 130.404 17.1051 130.705 17.6676C131.007 18.2244 131.157 18.892 131.157 19.6705V28.5H127.714V26.6847H127.612C127.401 27.0938 127.12 27.4545 126.768 27.767C126.416 28.0739 125.992 28.3153 125.498 28.4915C125.004 28.6619 124.433 28.7472 123.785 28.7472ZM124.825 26.2415C125.359 26.2415 125.83 26.1364 126.239 25.9261C126.649 25.7102 126.97 25.4205 127.203 25.0568C127.436 24.6932 127.552 24.2812 127.552 23.821V22.4318C127.438 22.5057 127.282 22.5739 127.083 22.6364C126.89 22.6932 126.671 22.7472 126.427 22.7983C126.183 22.8437 125.938 22.8864 125.694 22.9261C125.45 22.9602 125.228 22.9915 125.029 23.0199C124.603 23.0824 124.231 23.1818 123.913 23.3182C123.595 23.4545 123.347 23.6392 123.171 23.8722C122.995 24.0994 122.907 24.3835 122.907 24.7244C122.907 25.2188 123.086 25.5966 123.444 25.858C123.808 26.1136 124.268 26.2415 124.825 26.2415ZM133.254 28.5V15.4091H136.774V17.6932H136.91C137.149 16.8807 137.549 16.267 138.112 15.8523C138.674 15.4318 139.322 15.2216 140.055 15.2216C140.237 15.2216 140.433 15.233 140.643 15.2557C140.853 15.2784 141.038 15.3097 141.197 15.3494V18.571C141.027 18.5199 140.791 18.4744 140.49 18.4347C140.189 18.3949 139.913 18.375 139.663 18.375C139.129 18.375 138.652 18.4915 138.231 18.7244C137.816 18.9517 137.487 19.2699 137.243 19.679C137.004 20.0881 136.885 20.5597 136.885 21.0938V28.5H133.254ZM147.711 28.7557C146.364 28.7557 145.205 28.483 144.233 27.9375C143.268 27.3864 142.523 26.608 142 25.6023C141.478 24.5909 141.216 23.3949 141.216 22.0142C141.216 20.6676 141.478 19.4858 142 18.4688C142.523 17.4517 143.259 16.6591 144.208 16.0909C145.162 15.5227 146.282 15.2386 147.566 15.2386C148.429 15.2386 149.233 15.3778 149.978 15.6562C150.728 15.929 151.381 16.3409 151.938 16.892C152.5 17.4432 152.938 18.1364 153.25 18.9716C153.563 19.8011 153.719 20.7727 153.719 21.8864V22.8835H142.665V20.6335H150.302C150.302 20.1108 150.188 19.6477 149.961 19.2443C149.733 18.8409 149.418 18.5256 149.015 18.2983C148.617 18.0653 148.154 17.9489 147.625 17.9489C147.074 17.9489 146.586 18.0767 146.16 18.3324C145.739 18.5824 145.41 18.9205 145.171 19.3466C144.932 19.767 144.81 20.2358 144.804 20.7528V22.892C144.804 23.5398 144.924 24.0994 145.162 24.571C145.407 25.0426 145.75 25.4062 146.194 25.6619C146.637 25.9176 147.162 26.0455 147.77 26.0455C148.174 26.0455 148.543 25.9886 148.878 25.875C149.214 25.7614 149.5 25.5909 149.739 25.3636C149.978 25.1364 150.16 24.858 150.285 24.5284L153.643 24.75C153.472 25.5568 153.123 26.2614 152.594 26.8636C152.072 27.4602 151.395 27.9261 150.566 28.2614C149.742 28.5909 148.79 28.7557 147.711 28.7557Z" fill="#573FD1"/>
<path d="M157.352 12.9375V12.1818H161.855V12.9375H160.04V18H159.165V12.9375H157.352ZM163.09 12.1818H164.155L166.008 16.7045H166.076L167.928 12.1818H168.994V18H168.158V13.7898H168.104L166.388 17.9915H165.695L163.979 13.7869H163.925V18H163.09V12.1818Z" fill="black"/>
</svg>
