<svg width="45" height="45" viewBox="0 0 45 45" fill="none" xmlns="http://www.w3.org/2000/svg">
<rect x="0.5" y="0.5" width="44" height="44" rx="7.5" fill="#FAFAFA"/>
<rect x="0.5" y="0.5" width="44" height="44" rx="7.5" stroke="black"/>
<g clip-path="url(#clip0_64_624)">
<path d="M32.6582 25.732C32.6582 31.3421 28.1102 35.89 22.5002 35.89C16.8902 35.89 12.3423 31.3421 12.3423 25.732C12.3423 18.3445 22.5002 9.10999 22.5002 9.10999C22.5002 9.10999 32.6582 18.3445 32.6582 25.732Z" fill="#D80027"/>
<path d="M32.6579 25.732C32.6579 31.3421 28.11 35.89 22.5 35.89C22.5 24.8086 22.5 9.10999 22.5 9.10999C22.5 9.10999 32.6579 18.3445 32.6579 25.732Z" fill="#A2001D"/>
<path d="M27.5 22.5H24.5V19.5H20.5V22.5H17.5V26.5H20.5V29.5H24.5V26.5H27.5V22.5Z" fill="white"/>
</g>
<defs>
<clipPath id="clip0_64_624">
<rect width="26.78" height="26.78" fill="white" transform="translate(9.11011 9.10999)"/>
</clipPath>
</defs>
</svg>
